<svg viewBox="0 0 800 800" xmlns="http://www.w3.org/2000/svg">
  <rect width="800" height="800" fill="#EAE7DC"/>
  <g transform="translate(400, 400)">
    <!-- Create twisted spiraling shapes -->
    <g id="twist">
      <!-- Inner twisted rings -->
      <ellipse cx="0" cy="0" rx="80" ry="120" fill="none" stroke="#E8644F" stroke-width="2.5" opacity="0.7" transform="rotate(0)"/>
      <ellipse cx="0" cy="0" rx="80" ry="120" fill="none" stroke="#E8644F" stroke-width="2.5" opacity="0.7" transform="rotate(15)"/>
      <ellipse cx="0" cy="0" rx="80" ry="120" fill="none" stroke="#E8644F" stroke-width="2.5" opacity="0.7" transform="rotate(30)"/>
      <ellipse cx="0" cy="0" rx="80" ry="120" fill="none" stroke="#E8644F" stroke-width="2.5" opacity="0.7" transform="rotate(45)"/>
      <ellipse cx="0" cy="0" rx="80" ry="120" fill="none" stroke="#E8644F" stroke-width="2.5" opacity="0.7" transform="rotate(60)"/>
      <ellipse cx="0" cy="0" rx="80" ry="120" fill="none" stroke="#E8644F" stroke-width="2.5" opacity="0.7" transform="rotate(75)"/>
      <ellipse cx="0" cy="0" rx="80" ry="120" fill="none" stroke="#E8644F" stroke-width="2.5" opacity="0.7" transform="rotate(90)"/>
      <ellipse cx="0" cy="0" rx="80" ry="120" fill="none" stroke="#E8644F" stroke-width="2.5" opacity="0.7" transform="rotate(105)"/>
      
      <!-- Middle layer with different ratio -->
      <ellipse cx="0" cy="0" rx="120" ry="80" fill="none" stroke="#E8644F" stroke-width="2.5" opacity="0.6" transform="rotate(0)"/>
      <ellipse cx="0" cy="0" rx="120" ry="80" fill="none" stroke="#E8644F" stroke-width="2.5" opacity="0.6" transform="rotate(20)"/>
      <ellipse cx="0" cy="0" rx="120" ry="80" fill="none" stroke="#E8644F" stroke-width="2.5" opacity="0.6" transform="rotate(40)"/>
      <ellipse cx="0" cy="0" rx="120" ry="80" fill="none" stroke="#E8644F" stroke-width="2.5" opacity="0.6" transform="rotate(60)"/>
      <ellipse cx="0" cy="0" rx="120" ry="80" fill="none" stroke="#E8644F" stroke-width="2.5" opacity="0.6" transform="rotate(80)"/>
      <ellipse cx="0" cy="0" rx="120" ry="80" fill="none" stroke="#E8644F" stroke-width="2.5" opacity="0.6" transform="rotate(100)"/>
      
      <!-- Outer twisted rings -->
      <ellipse cx="0" cy="0" rx="100" ry="160" fill="none" stroke="#E8644F" stroke-width="2.5" opacity="0.5" transform="rotate(0)"/>
      <ellipse cx="0" cy="0" rx="100" ry="160" fill="none" stroke="#E8644F" stroke-width="2.5" opacity="0.5" transform="rotate(25)"/>
      <ellipse cx="0" cy="0" rx="100" ry="160" fill="none" stroke="#E8644F" stroke-width="2.5" opacity="0.5" transform="rotate(50)"/>
      <ellipse cx="0" cy="0" rx="100" ry="160" fill="none" stroke="#E8644F" stroke-width="2.5" opacity="0.5" transform="rotate(75)"/>
      <ellipse cx="0" cy="0" rx="100" ry="160" fill="none" stroke="#E8644F" stroke-width="2.5" opacity="0.5" transform="rotate(100)"/>
      
      <!-- Chaotic outer spirals -->
      <ellipse cx="0" cy="0" rx="140" ry="100" fill="none" stroke="#E8644F" stroke-width="2.5" opacity="0.4" transform="rotate(10)"/>
      <ellipse cx="0" cy="0" rx="140" ry="100" fill="none" stroke="#E8644F" stroke-width="2.5" opacity="0.4" transform="rotate(35)"/>
      <ellipse cx="0" cy="0" rx="140" ry="100" fill="none" stroke="#E8644F" stroke-width="2.5" opacity="0.4" transform="rotate(65)"/>
      <ellipse cx="0" cy="0" rx="140" ry="100" fill="none" stroke="#E8644F" stroke-width="2.5" opacity="0.4" transform="rotate(95)"/>
      <ellipse cx="0" cy="0" rx="140" ry="100" fill="none" stroke="#E8644F" stroke-width="2.5" opacity="0.4" transform="rotate(125)"/>
    </g>
    
    <!-- Add some crazy crossing lines -->
    <line x1="-150" y1="-150" x2="150" y2="150" stroke="#E8644F" stroke-width="1.5" opacity="0.3"/>
    <line x1="150" y1="-150" x2="-150" y2="150" stroke="#E8644F" stroke-width="1.5" opacity="0.3"/>
    <line x1="0" y1="-180" x2="0" y2="180" stroke="#E8644F" stroke-width="1.5" opacity="0.3"/>
    <line x1="-180" y1="0" x2="180" y2="0" stroke="#E8644F" stroke-width="1.5" opacity="0.3"/>
  </g>
</svg>